PathFileType	3	(X/Y/Z)	C:\Users\koon_\Desktop\
DataRate	CameraRate	NumFrames	NumMarkers	Units	OrigDataRate	OrigDataStartFrame	OrigNumFrames
100.0	100.0	4	27	mm	100.0	1	2016	
Frame#	Time	get:LFHD			get:RFHD			get:LBHD			get:RBHD			get:C7			get:T10			get:CLAV			get:STRN			get:RBAK			get:LSHO			get:LUPA			get:LELB			get:LFRA			get:LWRA			get:LWRB			get:LFIN			get:RSHO			get:RUPA			get:RELB			get:RFRA			get:RWRA			get:RWRB			get:RFIN			get:LASI			get:RASI			get:LPSI			get:RPSI			
		X1	Y1	Z1	X2	Y2	Z2	X3	Y3	Z3	X4	Y4	Z4	X5	Y5	Z5	X6	Y6	Z6	X7	Y7	Z7	X8	Y8	Z8	X9	Y9	Z9	X10	Y10	Z10	X11	Y11	Z11	X12	Y12	Z12	X13	Y13	Z13	X14	Y14	Z14	X15	Y15	Z15	X16	Y16	Z16	X17	Y17	Z17	X18	Y18	Z18	X19	Y19	Z19	X20	Y20	Z20	X21	Y21	Z21	X22	Y22	Z22	X23	Y23	Z23	X24	Y24	Z24	X25	Y25	Z25	X26	Y26	Z26	X27	Y27	Z27	
1	0	85.124596	1558.9666	-24.767527	-56.141048	1556.0106	-28.124716	64.960045	1558.3512	-185.94022	-64.359421	1531.5363	-193.57571	16.993294	1339.2092	-210.56502	14.418693	1124.7747	-245.3456	15.160769	1270.4987	-13.686116	24.683338	1073.7623	30.718586	-58.472961	1261.1759	-238.72018	148.26768	1345.9114	-131.37233	240.14751	1208.7089	-125.29794	269.30713	1011.5948	-144.42992	260.9892	890.63165	-65.813072	233.41582	812.78479	-42.910347	282.50354	807.6441	-113.094	296.44351	741.58173	-37.276772	-119.09763	1335.5544	-128.38652	-212.21123	1118.1393	-98.681763	-227.14995	1001.1609	-158.88753	-224.19446	954.88263	-71.302887	-197.95956	804.11627	-39.802811	-245.36278	798.6438	-105.77777	-255.85469	736.90131	-25.945997	150.12718	890.25415	-14.972125	-115.30206	876.78961	-14.291101	58.223785	949.7016	-230.07057	-31.628151	948.39557	-231.26328
2	0.01	85.269043	1558.8951	-24.790642	-55.945457	1556.0051	-28.116585	65.056351	1558.3547	-185.94109	-64.300842	1531.5984	-193.53214	16.979177	1339.2444	-210.67171	14.391376	1124.735	-245.34019	15.183386	1270.5104	-13.688787	24.732809	1073.8043	30.743977	-58.468929	1261.1906	-238.77397	148.30495	1345.9006	-131.47025	240.17195	1208.7067	-125.38432	269.28809	1011.5608	-144.52573	261.01291	890.56866	-65.963837	233.41678	812.74042	-43.006126	282.46515	807.60217	-113.25285	296.44205	741.54694	-37.437904	-119.04705	1335.5762	-128.38878	-212.22601	1118.1749	-98.744743	-227.21199	1001.2022	-158.84908	-224.20091	954.9411	-71.057175	-198.00426	804.19476	-39.678238	-245.45607	798.70667	-105.68931	-255.91063	737.00977	-25.824709	150.12878	890.23737	-14.970193	-115.27219	876.80731	-14.301198	58.196724	949.70001	-230.07062	-31.62286	948.37671	-231.25851
3	0.02	85.446465	1558.8479	-24.821705	-55.778385	1556.0035	-28.047892	65.142944	1558.3579	-185.96156	-64.196823	1531.6499	-193.51768	17.001503	1339.2156	-210.69165	14.39962	1124.7269	-245.36867	15.229159	1270.5295	-13.646638	24.076475	1073.7429	30.807787	-58.475029	1261.1692	-238.76633	148.34473	1345.87	-131.521	240.19508	1208.656	-125.48429	269.27524	1011.5375	-144.61156	261.00757	890.51178	-66.055138	233.37199	812.65594	-43.136612	282.44382	807.57343	-113.4035	296.39517	741.49713	-37.579239	-119.02377	1335.5975	-128.39912	-212.24889	1118.2247	-98.731804	-227.21259	1001.2589	-158.82962	-224.22409	955.02216	-70.948761	-198.06793	804.23633	-39.557213	-245.49419	798.76855	-105.57757	-254.40758	736.78418	-24.108622	150.12718	890.25415	-14.972125	-115.27528	876.76666	-14.265278	58.165783	949.67419	-230.04434	-31.622864	948.37671	-231.25851
4	0.03	85.569176	1558.7991	-24.841246	-55.658249	1556.001	-28.022476	65.24588	1558.3328	-185.95778	-64.141296	1531.6848	-193.45062	17.048349	1339.202	-210.75008	14.364456	1124.7015	-245.35454	15.312325	1270.5427	-13.730853	24.125666	1073.7644	30.859827	-58.422771	1261.1824	-238.78865	148.40038	1345.8696	-131.59837	240.2388	1208.6165	-125.54726	269.26285	1011.501	-144.69328	261.00458	890.47766	-66.200653	233.39427	812.62225	-43.260151	282.40366	807.52545	-113.55852	296.40723	741.4278	-37.715244	-118.98872	1335.6458	-128.4752	-212.2332	1118.2849	-98.701637	-227.27499	1001.3	-158.79002	-224.2914	955.10284	-71.172531	-198.10008	804.32452	-39.525337	-245.56612	798.79449	-105.47978	-254.46233	736.85687	-23.897694	150.12718	890.25415	-14.972125	-115.27528	876.76666	-14.265278	58.174274	949.65155	-230.03549	-31.692997	948.37518	-231.27271
